<?xml version="1.0" standalone="no"?>
<!DOCTYPE svg PUBLIC "-//W3C//DTD SVG 20010904//EN"
 "http://www.w3.org/TR/2001/REC-SVG-20010904/DTD/svg10.dtd">
<svg version="1.0" xmlns="http://www.w3.org/2000/svg"
 width="512.000000pt" height="512.000000pt" viewBox="0 0 512.000000 512.000000"
 preserveAspectRatio="xMidYMid meet">

<g transform="translate(0.000000,512.000000) scale(0.100000,-0.100000)"
fill="white" stroke="none">
<path d="M3710 5114 c-207 -27 -393 -95 -565 -209 -79 -52 -82 -53 -140 -49
-49 4 -66 1 -93 -15 -54 -34 -74 -76 -69 -146 4 -59 3 -62 -49 -141 -125 -188
-193 -393 -212 -636 l-7 -86 -925 -1076 c-692 -805 -934 -1093 -960 -1142 -33
-63 -35 -72 -35 -165 l0 -99 -182 -182 c-113 -114 -195 -205 -217 -242 -69
-115 -83 -282 -35 -411 l21 -57 -105 -107 c-58 -58 -112 -120 -121 -138 -61
-122 75 -258 197 -197 18 9 80 63 138 121 l107 105 57 -21 c129 -48 296 -34
411 35 37 22 128 104 242 217 l182 182 98 0 c90 0 102 3 162 32 40 20 116 77
195 146 72 62 402 346 735 632 333 285 761 653 952 817 l347 298 47 0 c85 0
255 31 359 65 121 39 201 78 310 150 78 51 82 52 140 48 70 -5 112 15 146 69
16 27 19 44 15 93 -4 58 -3 61 49 140 108 163 172 332 201 525 59 406 -86 821
-386 1103 -169 159 -370 266 -600 318 -83 19 -331 33 -410 23z m302 -309 c490
-87 834 -518 805 -1009 -10 -161 -52 -302 -133 -440 l-46 -79 -679 679 c-373
373 -675 682 -671 686 4 4 43 28 87 52 187 108 426 149 637 111z m391 -1753
c-42 -31 -163 -92 -231 -116 -80 -29 -220 -56 -286 -56 -41 0 -43 2 -523 482
-481 481 -483 483 -483 524 0 128 59 326 136 459 l46 78 679 -679 c611 -611
677 -680 662 -692z m-1248 98 c348 -349 408 -413 395 -423 -9 -7 -474 -406
-1034 -887 -560 -481 -1025 -879 -1033 -883 -8 -5 -24 -6 -36 -3 -35 8 -497
478 -497 504 0 14 178 229 522 629 287 335 689 803 892 1040 204 238 373 433
376 433 3 0 190 -185 415 -410z m-2192 -2463 c-91 -90 -175 -166 -199 -177
-155 -76 -325 87 -259 248 10 22 79 100 178 199 l161 163 138 -137 138 -138
-157 -158z"/>
<path d="M2470 2670 c-46 -24 -286 -267 -299 -303 -34 -90 16 -186 105 -203
76 -14 99 -1 242 139 74 73 143 150 154 171 66 129 -74 265 -202 196z"/>
</g>
</svg>
