<?xml version="1.0" standalone="no"?>
<!DOCTYPE svg PUBLIC "-//W3C//DTD SVG 20010904//EN"
 "http://www.w3.org/TR/2001/REC-SVG-20010904/DTD/svg10.dtd">
<svg version="1.0" xmlns="http://www.w3.org/2000/svg"
 width="333.000000pt" height="277.000000pt" viewBox="0 0 333.000000 277.000000"
 preserveAspectRatio="xMidYMid meet">

<g transform="translate(0.000000,277.000000) scale(0.100000,-0.100000)"
fill="white" stroke="none">
<path d="M521 2379 c-78 -23 -174 -111 -214 -197 l-22 -47 0 -745 0 -745 22
-48 c30 -63 110 -147 170 -178 l48 -24 402 0 401 0 27 25 c60 56 72 130 31
191 -46 68 -53 69 -439 69 l-346 0 -15 22 c-14 20 -16 102 -16 688 0 586 2
668 16 688 l15 22 1024 0 1024 0 15 -22 c13 -19 16 -60 16 -248 0 -200 3 -230
20 -267 27 -60 70 -85 139 -80 48 3 58 8 93 46 l39 41 -3 283 c-3 267 -4 285
-25 330 -29 63 -110 147 -170 178 l-48 24 -1085 2 c-681 1 -1098 -2 -1119 -8z"/>
<path d="M1654 1301 c-23 -10 -52 -34 -65 -52 l-24 -34 -3 -355 -3 -356 23
-34 c13 -18 36 -43 51 -54 28 -21 35 -21 632 -21 597 0 604 0 632 21 15 11 38
36 51 54 22 33 22 36 22 385 0 350 0 352 -23 386 -12 18 -40 44 -62 56 l-40
23 -575 0 c-539 0 -578 -2 -616 -19z"/>
</g>
</svg>
