<?xml version="1.0" standalone="no"?>
<!DOCTYPE svg PUBLIC "-//W3C//DTD SVG 20010904//EN"
 "http://www.w3.org/TR/2001/REC-SVG-20010904/DTD/svg10.dtd">
<svg version="1.0" xmlns="http://www.w3.org/2000/svg"
 width="512.000000pt" height="512.000000pt" viewBox="0 0 512.000000 512.000000"
 preserveAspectRatio="xMidYMid meet">

<g transform="translate(0.000000,512.000000) scale(0.100000,-0.100000)"
fill="white" stroke="none">
<path d="M1173 4185 c-164 -36 -295 -163 -339 -328 -11 -42 -14 -226 -14 -987
0 -1006 -1 -991 51 -1092 30 -59 120 -150 180 -183 116 -63 27 -59 1463 -62
1427 -4 1417 -4 1532 52 70 34 151 109 191 176 66 110 64 75 61 1130 l-3 954
-23 57 c-35 87 -103 173 -174 219 -125 80 0 74 -1513 76 -1110 1 -1361 -1
-1412 -12z m2772 -214 c59 -27 100 -65 126 -118 l24 -48 0 -935 c0 -929 0
-935 -21 -980 -25 -54 -64 -94 -119 -124 l-40 -21 -1330 -3 c-931 -2 -1343 1
-1374 8 -66 16 -123 61 -156 122 l-30 53 -3 919 c-3 1014 -5 982 59 1060 18
21 55 49 83 62 l51 24 1345 0 c1280 0 1347 -1 1385 -19z"/>
<path d="M2079 3551 l-29 -29 0 -646 c0 -479 3 -652 12 -671 13 -30 55 -55 90
-55 32 0 1076 628 1101 662 26 34 26 81 1 114 -10 14 -254 167 -541 340 -460
277 -527 314 -563 314 -33 0 -48 -6 -71 -29z m526 -460 c187 -112 346 -209
353 -216 10 -9 -62 -56 -331 -218 -189 -114 -352 -209 -361 -213 -15 -6 -16
29 -16 426 0 237 4 430 8 428 4 -1 161 -95 347 -207z"/>
<path d="M1482 1110 c-65 -40 -66 -125 -3 -167 l34 -23 1038 0 c622 0 1048 4
1062 9 42 16 67 51 67 93 0 49 -22 83 -62 97 -21 8 -354 11 -1067 11 -1018 0
-1037 0 -1069 -20z"/>
</g>
</svg>
